<svg xmlns="http://www.w3.org/2000/svg" preserveAspectRatio="none" width="870" height="500" viewBox="0 0 870 500"><path d="M210.4 378.8L210.4 372.6 205.4 372.6 205.4 447.3Q205.4 448.4 206.2 449.1 206.9 449.8 207.9 449.8 209 449.8 209.7 449.1 210.4 448.4 210.4 447.5 210.4 447.4 210.4 447.3L210.4 383.9Q236.5 379.3 251.3 389.4 261.1 396.3 266 405L266 396.1Q261.3 390.2 254.1 385.3 238.3 374.1 210.4 378.8M132.1 388.7Q131.9 388.7 131.8 388.7 107.5 397.9 103 418 90.3 414.1 78.6 421.2L78.6 421.2Q62.8 430.9 63.1 443.7 52.4 450 46.6 459.9 29.5 455.7 18 463.6 17.9 463.6 17.9 463.7L17.9 463.7Q-0.3 473.5 0.6 497.3 0.7 498.3 1.4 499 2.1 499.7 3.1 499.7L122.9 499.7Q123.5 500.1 124.2 500.1L292.2 500.1Q292.6 500.1 292.9 500L232.8 500Q221.7 500 215.4 495.1L126.7 495.1Q126.7 494.9 126.8 494.7 127.9 468.1 161.9 465.8 162.8 465.8 163.5 465 164.2 464.3 164.2 463.3L164.2 372.6 159.2 372.6 159.2 388.3Q148.8 384.4 132.1 388.7M133.5 393.5Q133.5 393.4 133.6 393.4 149.8 389.4 159.2 393.8L159.2 461Q122.4 464.4 121.7 494.7L5.6 494.7Q5.7 476.1 20.4 468 20.5 468 20.6 467.9 30.2 461.4 44.2 464.5 42.4 468.5 41.3 473 41 474 41.5 474.9 42.1 475.8 43.1 476 44.1 476.3 45 475.7 45.9 475.2 46.1 474.2 47.5 468.7 49.9 464.1L49.9 464 50 464Q55.6 453.5 66.8 447.3L66.9 447.3Q70.5 445.3 74.8 443.7 99.1 437.7 118.3 454.5 119.1 455.1 120.1 455.1 121.1 455 121.8 454.2 122.5 453.4 122.4 452.4 122.4 451.4 121.6 450.7 100.4 432.2 73.3 438.9 73.2 438.9 73.1 439 70.6 439.9 68.4 440.9 70 432.3 81.2 425.5 92.1 418.9 104 423.7 104.7 423.9 105.5 423.8 106.2 423.6 106.8 423 107.3 422.5 107.4 421.7 110.5 402.2 133.3 393.5 133.3 393.5 133.4 393.5 133.4 393.5 133.5 393.5M844.4 495Q856.5 495 861.5 488L215.8 488Q220.7 495 232.8 495L844.4 495Z" fill="#EAE6FA"/><path d="M168.6 372.6L164.2 372.6 164.2 463.3Q164.2 464.3 163.5 465 162.8 465.8 161.9 465.8 127.9 468.1 126.8 494.7 126.7 494.9 126.7 495.1L215.4 495.1Q211.3 491.8 209.3 486.4L209.3 486.4Q209.2 486.2 209.2 486.1 207.3 481.2 207.3 474.5L207.3 463.6Q207.3 462.5 208.1 461.8 208.8 461.1 209.8 461.1L266 461.1 266 405Q261.1 396.3 251.3 389.4 236.5 379.3 210.4 383.9L210.4 447.3Q210.4 447.4 210.4 447.5 210.4 448.4 209.7 449.1 209 449.8 207.9 449.8 206.9 449.8 206.2 449.1 205.4 448.4 205.4 447.3L205.4 372.6 200.1 372.6 200.8 383.1Q200.8 383.7 200.5 384.4 200.2 385 199.6 385.4 199 385.7 198.3 385.7L170.4 385.7Q169.7 385.7 169.1 385.4 168.5 385 168.2 384.4 167.8 383.8 167.9 383.1L168.6 372.6M133.6 393.4Q133.5 393.4 133.5 393.5 133.4 393.5 133.4 393.5 133.3 393.5 133.3 393.5 110.5 402.2 107.4 421.7 107.3 422.5 106.8 423 106.2 423.6 105.5 423.8 104.7 423.9 104 423.7 92.1 418.9 81.2 425.5 70 432.3 68.4 440.9 70.6 439.9 73.1 439 73.2 438.9 73.3 438.9 100.4 432.2 121.6 450.7 122.4 451.4 122.4 452.4 122.5 453.4 121.8 454.2 121.1 455 120.1 455.1 119.1 455.1 118.3 454.5 99.1 437.7 74.8 443.7 70.5 445.3 66.9 447.3L66.8 447.3Q55.6 453.5 50 464L49.9 464 49.9 464.1Q47.5 468.7 46.1 474.2 45.9 475.2 45 475.7 44.1 476.3 43.1 476 42.1 475.8 41.5 474.9 41 474 41.3 473 42.4 468.5 44.2 464.5 30.2 461.4 20.6 467.9 20.5 468 20.4 468 5.7 476.1 5.6 494.7L121.7 494.7Q122.4 464.4 159.2 461L159.2 393.8Q149.8 389.4 133.6 393.4M199.1 357.7L199.7 367.6 219.8 367.6Q222.9 367.6 225.1 365.4 227.3 363.2 227.3 360.1L227.3 357.7 199.1 357.7M190 297.1L178.7 297.1 173.1 380.7 195.6 380.7 190 297.1M266 228.9Q260.8 225.6 254.8 223.4L254.8 320.6 266 320.6 266 228.9M66.5 320.6L109.8 320.6 109.8 223.6Q65.2 240.6 66.5 320.6M139.1 360.1Q139.1 363.2 141.3 365.4 143.5 367.6 146.6 367.6L168.9 367.6 169.6 357.7 139.1 357.7 139.1 360.1M196.1 312.6L198.7 352.7 227.3 352.7Q236.6 352.7 243.2 346.1 249.8 339.5 249.8 330.2L249.8 312.6 196.1 312.6M114.8 312.6L114.8 330.2Q114.8 339.5 121.4 346.1 128 352.7 137.3 352.7L169.9 352.7 172.6 312.6 114.8 312.6M249.8 129.8Q248.2 94.3 233.7 66.9 185.3 81.3 130.8 67 116.5 94.3 114.8 129.7L114.8 307.6 173 307.6 173.9 294.4Q173.9 293.4 174.7 292.8 175.4 292.1 176.4 292.1L192.3 292.1Q193.3 292.1 194 292.8 194.8 293.4 194.8 294.4L195.7 307.6 249.8 307.6 249.8 129.8M182.7 107.4Q205.2 107.4 221.1 123.3 236.9 139.1 236.9 161.6 236.9 184.1 221.1 200 205.2 215.9 182.7 215.9 160.2 215.9 144.3 200 128.4 184.1 128.4 161.6 128.4 139.1 144.3 123.3 160.2 107.4 182.7 107.4M217.5 196.5Q231.9 182 231.9 161.6 231.9 141.2 217.5 126.8 203.1 112.4 182.7 112.4 162.3 112.4 147.9 126.8 133.4 141.2 133.4 161.6 133.4 182 147.9 196.5 162.3 210.9 182.7 210.9 203.1 210.9 217.5 196.5M223.1 161.6Q223.1 178.4 211.3 190.3 199.5 202.1 182.7 202.1 165.9 202.1 154.1 190.3 142.3 178.4 142.3 161.6 142.3 144.9 154.1 133.1 165.9 121.2 182.7 121.2 199.5 121.2 211.3 133.1 223.1 144.9 223.1 161.6M207.8 186.7Q218.1 176.3 218.1 161.6 218.1 147 207.8 136.6 197.4 126.2 182.7 126.2 168 126.2 157.7 136.6 147.3 147 147.3 161.6 147.3 176.3 157.7 186.7 168 197.1 182.7 197.1 197.4 197.1 207.8 186.7M231.3 62.4Q214.4 33.2 182.3 13.5 150.2 33.2 133.3 62.5 185 75.8 231.3 62.4M863.9 483Q864.9 479.3 864.9 474.5L864.9 466.1 212.3 466.1 212.3 474.5Q212.3 479.3 213.4 483L863.9 483M804.4 151.3Q804.4 130.8 784 130.8L291.5 130.8Q271 130.8 271 151.3L271 461.1 804.4 461.1 804.4 151.3M784 158Q785.1 158 785.8 158.7 786.5 159.4 786.5 160.5L786.5 438.4Q786.5 439.4 785.8 440.2 785.1 440.9 784 440.9L294.9 440.9Q293.9 440.9 293.2 440.2 292.4 439.4 292.4 438.4L292.4 160.5Q292.4 159.4 293.2 158.7 293.9 158 294.9 158L784 158M528.7 146.2Q528.7 143 530.9 140.8 530.9 140.7 531 140.7 533.2 138.5 536.4 138.5 539.6 138.5 541.8 140.7L541.9 140.7Q544.1 143 544.1 146.2 544.1 149.4 541.9 151.7 539.6 153.9 536.4 153.9 533.2 153.9 530.9 151.7 530.9 151.7 530.9 151.6 528.7 149.4 528.7 146.2M571.1 448.5Q572.1 448.5 572.9 449.2 573.6 449.9 573.6 451 573.6 452 572.9 452.8 572.1 453.5 571.1 453.5L504.5 453.5Q503.5 453.5 502.8 452.8 502 452 502 451 502 449.9 502.8 449.2 503.5 448.5 504.5 448.5L571.1 448.5M536.4 143.5Q535.3 143.5 534.5 144.3 533.7 145.1 533.7 146.2 533.7 147.4 534.5 148.2 535.3 148.9 536.4 148.9 537.5 148.9 538.3 148.2 539.1 147.3 539.1 146.2 539.1 145.1 538.3 144.3L538.4 144.3Q537.6 143.5 536.4 143.5M297.4 435.9L335.7 435.9 335.7 192.6 297.4 192.6 297.4 435.9M325.4 208.6Q326.1 209.3 326.1 210.4 326.1 211.4 325.4 212.2 324.7 212.9 323.6 212.9L310.9 212.9Q309.8 212.9 309.1 212.2 308.4 211.4 308.4 210.4 308.4 209.3 309.1 208.6 309.8 207.9 310.9 207.9L323.6 207.9Q324.7 207.9 325.4 208.6M325.4 233.4Q326.1 234.1 326.1 235.1 326.1 236.2 325.4 236.9 324.7 237.6 323.6 237.6L310.9 237.6Q309.8 237.6 309.1 236.9 308.4 236.2 308.4 235.1 308.4 234.1 309.1 233.4 309.8 232.6 310.9 232.6L323.6 232.6Q324.7 232.6 325.4 233.4M325.4 258.1Q326.1 258.8 326.1 259.9 326.1 260.9 325.4 261.7 324.7 262.4 323.6 262.4L310.9 262.4Q309.8 262.4 309.1 261.7 308.4 260.9 308.4 259.9 308.4 258.8 309.1 258.1 309.8 257.4 310.9 257.4L323.6 257.4Q324.7 257.4 325.4 258.1M325.4 282.9Q326.1 283.6 326.1 284.6 326.1 285.7 325.4 286.4 324.7 287.1 323.6 287.1L310.9 287.1Q309.8 287.1 309.1 286.4 308.4 285.7 308.4 284.6 308.4 283.6 309.1 282.9 309.8 282.1 310.9 282.1L323.6 282.1Q324.7 282.1 325.4 282.9M781.5 435.9L781.5 192.6 340.7 192.6 340.7 435.9 781.5 435.9M451.6 295.1Q454.5 291.2 458.1 287.6 462.2 283.6 466.6 280.4 467.3 279.9 468.2 279.9 469 280 469.7 280.6L481.3 290.8Q486.1 288.2 491.5 286.7L492.4 271.4Q492.4 270.5 493 269.9 493.6 269.2 494.5 269.1 499.5 268.3 504.7 268.3 510.4 268.3 515.7 269.1 516.5 269.2 517.1 269.9 517.7 270.5 517.8 271.4L518.7 286.9Q524.1 288.5 528.9 291.2L540.5 281Q541.1 280.4 542 280.4 542.9 280.3 543.6 280.9 547.7 283.9 551.4 287.6 555.3 291.6 558.4 295.8 558.9 296.5 558.8 297.4 558.8 298.3 558.2 298.9L548 310.5Q550.6 315.2 552 320.4L567.5 321.3Q568.4 321.4 569.1 322 569.7 322.6 569.9 323.4 570.7 328.6 570.7 334.2 570.7 339.5 570 344.5 569.8 345.4 569.2 346 568.5 346.6 567.6 346.6L552.2 347.5Q550.6 353.3 547.7 358.5L557.9 370Q558.5 370.7 558.5 371.6 558.6 372.5 558 373.2 555 377.2 551.3 380.9L551.4 380.9Q547.5 384.7 543.3 387.9 542.6 388.4 541.7 388.4 540.8 388.3 540.1 387.8L528.5 377.4Q523.6 380.2 518.1 381.7L517.2 397.1Q517.1 398 516.5 398.6 515.9 399.3 515.1 399.4 510.1 400.2 504.7 400.2 499.3 400.2 494.3 399.4 493.4 399.3 492.8 398.6 492.2 398 492.2 397.1L491.2 381.6Q485.8 380.1 481 377.5L469.4 387.8Q468.7 388.3 467.8 388.4 466.9 388.4 466.2 387.9 462 384.7 458.1 380.9 454.4 377.2 451.4 373.1 450.9 372.4 450.9 371.5 451 370.6 451.6 370L461.8 358.4Q458.9 353.4 457.3 347.8L441.9 346.9Q441.1 346.9 440.4 346.3 439.7 345.7 439.6 344.8 438.8 339.7 438.8 334.2 438.8 328.9 439.5 324 439.6 323.1 440.3 322.5 440.9 321.9 441.8 321.8L457.3 320.9Q458.9 315 462 309.8L451.8 298.2Q451.2 297.6 451.1 296.7 451.1 295.8 451.6 295.1M569.2 214.7Q570.2 218.1 568.5 221.3L564.7 228.2Q565.2 228.8 565.6 229.4L573.4 227Q576.8 226 580 227.7L580 227.7Q583.1 229.4 584.2 232.8 584.2 232.8 584.2 232.9 585.2 236.3 583.5 239.4 581.8 242.6 578.3 243.6L578.4 243.6 570.7 245.9Q570.7 246.7 570.6 247.6L577.8 252.2 577.9 252.2Q580.9 254.2 581.6 257.7 582.3 261.3 580.4 264.2L580.4 264.1Q578.5 267.2 575 268L574.9 268Q571.5 268.7 568.5 266.8L562.8 263.1Q561.5 264.2 560.3 265.1L562.4 272.6Q563.4 276.1 561.6 279.2 559.9 282.3 556.5 283.3 553.1 284.3 550 282.5L550 282.5Q546.8 280.8 545.8 277.4 545.8 277.4 545.8 277.3L543.7 270Q542.5 269.9 541.2 269.7L537.1 277Q535.3 280.1 531.9 281.1 528.4 282.1 525.3 280.2 522.2 278.5 521.3 275.1 520.3 271.7 522.1 268.6L526.2 261.3Q525.4 260.4 524.7 259.5L516 261.4 516 261.4Q512.5 262.3 509.5 260.3L509.5 260.3Q506.4 258.4 505.7 254.9L505.7 255Q504.8 251.5 506.8 248.4 508.8 245.4 512.2 244.6 512.2 244.6 512.3 244.6L520 242.9Q520.1 241.2 520.4 239.6L514 236.1Q510.9 234.3 509.9 230.9 508.9 227.5 510.7 224.4L510.6 224.4Q512.4 221.1 515.8 220.3 515.9 220.3 515.9 220.3 519.3 219.3 522.3 221L522.4 221 529.4 224.9Q530 224.4 530.6 223.9L528.6 215.8 528.6 215.8Q527.6 212.4 529.6 209.3L529.5 209.3Q531.4 206.3 534.7 205.4L534.8 205.4Q538.3 204.4 541.3 206.3L541.4 206.4Q544.4 208.2 545.3 211.6L545.3 211.6 547.2 219.3Q548.5 219.4 549.7 219.6L553.3 213 553.4 213Q555.1 209.8 558.5 208.9L558.4 208.9Q561.9 207.8 565.1 209.6L565.2 209.6Q568.2 211.4 569.2 214.7M564.8 367.5Q561.7 365.5 560.9 362.1L561 362.1Q560.1 358.7 561.9 355.6L561.9 355.7Q563.8 352.5 567.3 351.7 570.7 350.9 573.8 352.7L573.8 352.8 580.6 356.9Q581.2 356.4 581.9 356L580.2 347.8 580.2 347.8Q579.5 344.3 581.4 341.4L581.4 341.4Q583.3 338.4 586.8 337.6 586.8 337.6 586.9 337.6 590.3 336.9 593.3 338.9 596.2 340.8 597.1 344.2 597.1 344.2 597.1 344.3L598.7 352Q600 352.1 601.2 352.4L605 345.9Q605.1 345.9 605.1 345.8 607 342.8 610.4 342 613.7 341.1 616.9 343L616.9 343Q620 344.9 620.8 348.3L620.8 348.2Q621.7 351.7 619.9 354.8L615.8 361.6Q616.3 362.2 616.7 362.8L624.6 360.8Q628 359.9 631.1 361.7 634.2 363.5 635.1 367L635.1 367Q635.9 370.5 634.2 373.5 634.1 373.5 634.1 373.5 632.3 376.7 628.9 377.5L621.1 379.5Q621 380.3 620.9 381.2L628 386.1Q630.9 388.2 631.5 391.7 632.2 395.2 630.1 398.2 628.1 401.1 624.5 401.7L624.6 401.6Q621.1 402.3 618.1 400.3L612.5 396.4Q611.3 397.4 610 398.4L611.8 405.9 611.8 405.8Q612.7 409.2 610.8 412.4 609 415.4 605.5 416.4 605.5 416.3 605.5 416.4 601.9 417.2 598.9 415.2L599 415.3Q595.9 413.5 595 410L595 410 593.2 402.5Q592 402.4 590.8 402.2L586.3 409.3Q584.4 412.3 581 413.2 577.5 414 574.5 412.1 574.4 412.1 574.4 412 571.4 410.2 570.6 406.8L570.6 406.7Q569.8 403.2 571.7 400.2L576.1 393.2Q575.3 392.2 574.7 391.3L565.8 392.9 565.9 392.9Q562.4 393.6 559.5 391.6 559.4 391.6 559.4 391.5 556.4 389.5 555.8 386L555.8 386.1Q555.1 382.5 557.2 379.5L557.2 379.6Q559.1 376.7 562.7 376L570.6 374.5Q570.7 372.9 571.1 371.3L564.8 367.5M566.2 358.2Q565.5 359.5 565.8 360.9L565.8 361Q566.1 362.4 567.4 363.2L567.4 363.2 575.3 368.1Q576.1 368.5 576.4 369.3 576.7 370.1 576.4 371 575.6 373.5 575.4 376.5 575.4 376.6 575.4 376.6 575.4 377.5 574.9 378.2 574.3 378.9 573.4 379.1L563.6 380.9Q562.1 381.2 561.3 382.4 561.3 382.4 561.3 382.4 560.4 383.6 560.7 385.1L560.7 385.1Q560.9 386.6 562.2 387.4 562.2 387.4 562.3 387.4 563.4 388.3 564.9 388L564.9 388 575.4 386.1Q576.2 385.9 576.9 386.3 577.6 386.6 578.1 387.3 579.2 389.2 580.9 391 581.1 391.3 581.3 391.6 581.3 391.7 581.4 391.8 581.6 392.4 581.6 393 581.6 393.7 581.3 394.2L576 402.8 576 402.9Q575.1 404.1 575.5 405.7 575.8 407 577.1 407.8 577.1 407.8 577.2 407.8 578.4 408.6 579.8 408.3 581.2 407.9 582.1 406.7L587.5 398Q587.9 397.3 588.7 397 589.4 396.7 590.2 396.9 592.5 397.5 594.9 397.6L594.9 397.6Q595.1 397.6 595.2 397.6 596.1 397.6 596.8 398.1 597.5 398.7 597.7 399.5L599.9 408.8 599.9 408.7Q600.2 410.2 601.6 411 601.6 411 601.7 411.1 602.9 411.8 604.3 411.5L604.2 411.5Q605.7 411.1 606.5 409.8L606.5 409.8Q607.3 408.5 606.9 407.1 606.9 407.1 606.9 407.1L604.7 397.8Q604.5 397 604.8 396.3 605.1 395.5 605.8 395.1 607.8 393.9 609.6 392.3 609.6 392.2 609.7 392.2L609.7 392.2Q610 391.9 610.3 391.5 610.9 390.7 611.9 390.6 612.8 390.5 613.7 391L621 396.2Q622.2 397 623.6 396.7 623.7 396.7 623.7 396.7 625.2 396.5 626 395.3L626 395.3Q626.9 394.1 626.6 392.6 626.4 391.1 625.1 390.2L625.2 390.2 616.8 384.3Q616.1 383.9 615.9 383.2 615.6 382.5 615.7 381.8 616.1 380 616.2 378.1 616.2 377.9 616.2 377.8 616.2 377.7 616.2 377.5 616.2 376.7 616.8 376 617.3 375.3 618.1 375.1L627.6 372.7Q629 372.3 629.8 371L629.8 370.9Q630.6 369.7 630.3 368.2L630.3 368.3Q629.9 366.8 628.6 366 627.3 365.3 625.9 365.6L616.3 368.1Q615.5 368.3 614.7 368 613.9 367.7 613.5 367 612.4 365.2 610.9 363.5 610.3 362.9 610.2 362.1 610.1 361.2 610.6 360.5L615.6 352.2 615.6 352.3Q616.3 351 616 349.5 616 349.5 616 349.4 615.6 348 614.3 347.3L614.4 347.3Q613 346.5 611.6 346.9 610.1 347.2 609.3 348.6L609.3 348.5 604.5 356.5Q604.1 357.2 603.3 357.6 602.5 357.9 601.7 357.6 599.3 356.9 596.6 356.9 595.7 356.9 595.1 356.3 594.4 355.8 594.2 354.9L592.2 345.3Q591.8 343.8 590.6 343 589.3 342.2 587.9 342.5L588 342.5Q586.4 342.8 585.6 344.1L585.6 344.1Q584.8 345.3 585.1 346.8L587.2 356.6Q587.3 357.4 587 358.1 586.7 358.9 586 359.3 584.1 360.4 582.5 361.8 581.8 362.4 581 362.4 580.2 362.5 579.5 362.1L571.2 357 571.3 357.1Q569.9 356.3 568.5 356.6 567 356.9 566.2 358.2M596.3 364.1L596.4 364.1Q601.7 364.3 605.4 368.3L605.4 368.3Q609.1 372.4 608.9 377.7 608.7 383.2 604.7 386.9L604.8 386.8Q600.7 390.6 595.3 390.4L595.2 390.4Q589.9 390.2 586.4 386.3 586.3 386.3 586.3 386.2L586.2 386.2 586.2 386.2Q586.1 386 586 385.9 582.5 382.1 582.7 376.8L582.7 376.7Q582.9 371.4 586.9 367.6 590.9 363.9 596.3 364.1M596.2 369.1L596.1 369.1Q592.8 369 590.3 371.3 587.8 373.6 587.7 376.9 587.5 380.1 589.5 382.4 589.7 382.5 589.9 382.7 589.9 382.8 590 382.8L590 382.9Q592.2 385.3 595.4 385.4 598.8 385.5 601.3 383.2 601.3 383.1 601.4 383.1 603.8 380.9 603.9 377.6 604 374.2 601.8 371.7L601.7 371.7Q599.4 369.2 596.2 369.1M579.4 234.3L579.4 234.2Q578.9 232.8 577.7 232.2L577.6 232.1Q576.3 231.4 574.8 231.8L565.3 234.7Q564.5 234.9 563.8 234.6 563 234.3 562.5 233.6 561.4 231.9 559.9 230.4 559.3 229.8 559.2 228.9 559 228.1 559.4 227.4L564.1 218.9 564.1 218.9Q564.8 217.6 564.4 216.1 563.9 214.7 562.7 213.9L562.6 213.9Q561.3 213.2 560 213.7 559.9 213.7 559.8 213.7 558.4 214.1 557.7 215.4L557.7 215.4 553.2 223.6Q552.8 224.3 552.1 224.7 551.3 225 550.5 224.8 548 224.2 545.3 224.2L545.2 224.2Q544.4 224.2 543.7 223.7 543 223.2 542.8 222.3L540.5 212.8 540.5 212.9Q540.1 211.4 538.8 210.6L538.7 210.6Q537.5 209.8 536 210.2 534.6 210.6 533.8 211.9 533 213.1 533.4 214.5L533.4 214.6 535.9 224.4Q536 225.1 535.8 225.9 535.5 226.6 534.8 227.1 533 228.3 531.4 229.8 530.8 230.3 530 230.4 529.2 230.5 528.5 230.1L519.9 225.4Q518.6 224.7 517.2 225.1 517.2 225.1 517.1 225.1 515.7 225.5 515 226.8L515 226.8Q514.3 228.1 514.7 229.5L514.7 229.5Q515.1 231 516.4 231.7L524.5 236.2Q525.2 236.6 525.5 237.4 525.9 238.2 525.7 239 524.9 241.7 524.9 244.6 524.9 244.8 524.9 244.9 524.9 245.8 524.4 246.5 523.8 247.1 523 247.3L513.3 249.5Q511.9 249.9 511 251.2 510.2 252.4 510.6 253.8L510.6 253.8Q510.9 255.3 512.2 256.1L512.2 256.1Q513.4 256.9 514.8 256.6L514.9 256.5 525.3 254.2Q526 254.1 526.8 254.4 527.5 254.7 527.9 255.3 529.2 257.3 530.9 259 531 259.1 531.2 259.3 531.7 259.9 531.8 260.7 531.9 261.5 531.5 262.2L526.5 271Q525.7 272.3 526.1 273.7 526.1 273.7 526.2 273.8 526.5 275.2 527.8 275.9 527.8 275.9 527.9 275.9 529.1 276.7 530.6 276.3 532 275.9 532.8 274.6L537.8 265.7Q538.2 265 538.9 264.7 539.7 264.3 540.5 264.5 542.8 265 545.3 265 545.4 265 545.6 265 546.5 265 547.1 265.5 547.8 266 548 266.9L550.6 276 550.6 276Q551 277.4 552.4 278.1L552.4 278.2Q553.7 278.9 555.1 278.5L555.1 278.5Q556.5 278.1 557.2 276.8 557.3 276.7 557.3 276.7 558 275.4 557.6 274L555 264.8Q554.8 264 555.1 263.3 555.4 262.5 556.1 262.1 558 260.8 559.8 259 559.8 258.9 559.9 258.9 560.2 258.6 560.6 258.2 561.2 257.5 562.1 257.4 563 257.3 563.8 257.8L571.2 262.6Q572.5 263.4 573.9 263.1 575.4 262.7 576.2 261.4 577 260.2 576.7 258.7L576.7 258.7Q576.4 257.2 575.1 256.4L566.5 250.9Q565.9 250.5 565.6 249.8 565.3 249.1 565.4 248.4 565.7 246.6 565.7 244.6 565.7 244.3 565.7 244 565.7 243.1 566.2 242.5 566.7 241.8 567.5 241.6L576.9 238.8 577 238.8Q578.4 238.4 579.1 237.1L579.1 237Q579.8 235.7 579.4 234.3M532.2 244.6Q532.2 239.2 536.1 235.4 539.9 231.5 545.3 231.5 550.7 231.5 554.6 235.4L554.7 235.4Q558.5 239.3 558.5 244.6 558.5 250.1 554.7 253.9L554.6 253.9Q550.7 257.8 545.3 257.8 539.9 257.8 536.1 254L536 253.9Q532.2 250 532.2 244.6M545.3 236.5Q542 236.5 539.6 238.9L539.6 238.9Q537.2 241.3 537.2 244.6 537.2 248 539.5 250.3L539.7 250.5Q542 252.8 545.3 252.8 548.7 252.8 551.1 250.4 553.5 248 553.5 244.6 553.5 241.3 551.1 238.9L551.1 238.9Q548.6 236.5 545.3 236.5M461.6 291.2Q459.1 293.8 456.9 296.5L466.9 307.8Q467.5 308.4 467.5 309.3 467.6 310.1 467.2 310.8 463.3 316.8 461.7 323.8 461.5 324.6 460.9 325.2 460.3 325.7 459.4 325.8L444.2 326.7Q443.8 330.3 443.8 334.2 443.8 338.2 444.3 342.1L459.4 342.9Q460.2 343 460.9 343.5 461.5 344 461.7 344.9 463.3 351.6 467 357.4 467.5 358.1 467.4 358.9 467.4 359.8 466.8 360.4L456.7 371.8Q458.9 374.6 461.6 377.3L461.7 377.3Q464.5 380.2 467.6 382.6L479 372.5Q479.6 372 480.5 371.9 481.3 371.8 482 372.3 487.6 375.7 494.2 377.2 494.9 377.4 495.5 378 496 378.6 496.1 379.5L497.1 394.7Q500.8 395.2 504.7 395.2 508.6 395.2 512.3 394.7L513.2 379.5Q513.3 378.7 513.8 378.1 514.4 377.4 515.2 377.3 521.8 375.7 527.5 372.2 528.2 371.8 529.1 371.8 529.9 371.9 530.5 372.5L541.9 382.6Q544.9 380.2 547.8 377.3 550.5 374.7 552.8 371.8L542.7 360.4Q542.1 359.8 542.1 359 542 358.2 542.5 357.5 546.2 351.5 547.7 344.6 547.9 343.8 548.6 343.2 549.2 342.7 550 342.6L565.3 341.8Q565.7 338.1 565.7 334.2 565.7 330.1 565.2 326.2L549.9 325.3Q549.1 325.2 548.5 324.7 547.8 324.2 547.7 323.4 546.1 317 542.8 311.5 542.4 310.8 542.4 310 542.5 309.1 543.1 308.5L553.1 297.2Q550.7 294.1 547.8 291.2L547.8 291.1Q545.1 288.4 542.3 286.1L530.9 296.2Q530.2 296.8 529.4 296.8 528.6 296.9 527.9 296.5 522.2 292.9 515.7 291.3 514.9 291.1 514.4 290.5 513.9 289.8 513.8 289L512.9 273.8Q508.9 273.3 504.7 273.3 500.9 273.3 497.3 273.8L496.3 288.9Q496.3 289.7 495.7 290.4 495.2 291 494.4 291.2 487.9 292.6 482.2 296 481.5 296.4 480.7 296.4 479.9 296.3 479.3 295.8L467.9 285.7Q464.7 288.2 461.7 291.1L461.6 291.2M475.6 334.2Q475.6 322.1 484.2 313.6 492.6 305.1 504.7 305.1 516.8 305.1 525.4 313.6L525.4 313.6Q533.9 322.1 533.9 334.2 533.9 346.3 525.4 354.8L525.4 354.9Q516.8 363.4 504.7 363.4 492.7 363.4 484.2 354.9L484.2 354.8Q475.6 346.3 475.6 334.2M487.7 317.1L487.7 317.2Q480.6 324.2 480.6 334.2 480.6 344.2 487.7 351.3L487.7 351.3Q494.7 358.4 504.7 358.4 514.7 358.4 521.9 351.3 528.9 344.2 528.9 334.2 528.9 324.2 521.9 317.2 514.8 310.1 504.7 310.1 494.7 310.1 487.7 317.1M493.6 345.3Q489.1 340.7 489.1 334.2 489.1 327.7 493.6 323.2 498.2 318.5 504.7 318.5 511.2 318.5 515.8 323.2L515.8 323.2Q520.4 327.8 520.4 334.2 520.4 340.7 515.8 345.3L515.8 345.3Q511.2 349.9 504.7 349.9 498.3 349.9 493.6 345.3L493.6 345.3M497.2 326.7L497.2 326.7Q494.1 329.8 494.1 334.2 494.1 338.6 497.1 341.8L497.2 341.8Q500.3 344.9 504.7 344.9 509.1 344.9 512.3 341.8 515.4 338.6 515.4 334.2 515.4 329.8 512.3 326.7L512.3 326.7Q509.1 323.5 504.7 323.5 500.3 323.5 497.2 326.7M781.5 187.6L781.5 163 297.4 163 297.4 187.6 781.5 187.6M333 172.4Q334.2 171.1 336 171.1 337.8 171.1 339 172.4 340.3 173.6 340.3 175.4 340.3 177.2 339 178.4 337.8 179.7 336 179.7 334.2 179.7 333 178.4 331.8 177.2 331.8 175.4 331.8 173.6 333 172.4M327.2 175.4Q327.2 177.2 325.9 178.4 324.7 179.7 322.9 179.7 321.1 179.7 319.9 178.4 318.6 177.2 318.6 175.4 318.6 173.6 319.9 172.4 321.1 171.1 322.9 171.1 324.7 171.1 325.9 172.4 327.2 173.6 327.2 175.4M309.8 171.1Q311.5 171.1 312.8 172.4 314 173.6 314 175.4 314 177.2 312.8 178.4 311.5 179.7 309.8 179.7 308 179.7 306.7 178.4 305.5 177.2 305.5 175.4 305.5 173.6 306.7 172.4 308 171.1 309.8 171.1Z" fill="#FFF"/><path d="M809.4 151.3Q809.4 125.8 784 125.8L291.5 125.8Q266 125.8 266 151.3L266 223.1Q260.8 220.1 254.8 218.1L254.8 129.7Q254.8 129.6 254.8 129.6 251.1 49.1 183.6 8.4 183 8 182.3 8 181.6 8 181 8.4 113.5 49.1 109.8 129.6 109.8 129.6 109.8 129.7L109.8 218.2Q59.4 235.1 61.6 323.2 61.6 324.2 62.3 324.9 63.1 325.6 64.1 325.6L109.8 325.6 109.8 330.2Q109.8 341.6 117.9 349.6 124.8 356.5 134.1 357.5L134.1 360.1Q134.1 365.3 137.7 368.9 141.4 372.6 146.6 372.6L159.2 372.6 164.2 372.6 168.6 372.6 167.9 383.1Q167.8 383.8 168.2 384.4 168.5 385 169.1 385.4 169.7 385.7 170.4 385.7L198.3 385.7Q199 385.7 199.6 385.4 200.2 385 200.5 384.4 200.8 383.7 200.8 383.1L200.1 372.6 205.4 372.6 210.4 372.6 219.8 372.6Q225 372.6 228.6 368.9L228.7 368.9Q232.3 365.3 232.3 360.1L232.3 357.3Q240.5 355.8 246.8 349.6 254.8 341.6 254.8 330.2L254.8 325.6 266 325.6 266 396.1 266 405 266 461.1 209.8 461.1Q208.8 461.1 208.1 461.8 207.3 462.5 207.3 463.6L207.3 474.5Q207.3 481.2 209.2 486.1 209.2 486.2 209.3 486.4L209.3 486.4Q211.3 491.8 215.4 495.1 221.7 500 232.8 500L292.9 500 844.4 500Q862.8 500 867.9 486.6 868 486.5 868 486.4L868.1 486.3Q869.9 481.3 869.9 474.5L869.9 463.6Q869.9 462.5 869.2 461.8 868.4 461.1 867.4 461.1L809.4 461.1 809.4 151.3M784 130.8Q804.4 130.8 804.4 151.3L804.4 461.1 271 461.1 271 151.3Q271 130.8 291.5 130.8L784 130.8M864.9 474.5Q864.9 479.3 863.9 483L213.4 483Q212.3 479.3 212.3 474.5L212.3 466.1 864.9 466.1 864.9 474.5M861.5 488Q856.5 495 844.4 495L232.8 495Q220.7 495 215.8 488L861.5 488M231.3 62.4Q232.5 64.6 233.7 66.9 248.2 94.3 249.8 129.8L249.8 307.6 249.8 312.6 249.8 330.2Q249.8 339.5 243.2 346.1 236.6 352.7 227.3 352.7L198.7 352.7 196.1 312.6 195.7 307.6 194.8 294.4Q194.8 293.4 194 292.8 193.3 292.1 192.3 292.1L176.4 292.1Q175.4 292.1 174.7 292.8 173.9 293.4 173.9 294.4L173 307.6 172.6 312.6 169.9 352.7 137.3 352.7Q128 352.7 121.4 346.1 114.8 339.5 114.8 330.2L114.8 312.6 114.8 307.6 114.8 129.7Q116.5 94.3 130.8 67 132 64.7 133.3 62.5 150.2 33.2 182.3 13.5 214.4 33.2 231.3 62.4M141.3 365.4Q139.1 363.2 139.1 360.1L139.1 357.7 169.6 357.7 168.9 367.6 146.6 367.6Q143.5 367.6 141.3 365.4M109.8 320.6L66.5 320.6Q65.2 240.6 109.8 223.6L109.8 320.6M254.8 223.4Q260.8 225.6 266 228.9L266 320.6 254.8 320.6 254.8 223.4M178.7 297.1L190 297.1 195.6 380.7 173.1 380.7 178.7 297.1M199.7 367.6L199.1 357.7 227.3 357.7 227.3 360.1Q227.3 363.2 225.1 365.4 222.9 367.6 219.8 367.6L199.7 367.6M221.1 123.3Q205.2 107.4 182.7 107.4 160.2 107.4 144.3 123.3 128.4 139.1 128.4 161.6 128.4 184.1 144.3 200 160.2 215.9 182.7 215.9 205.2 215.9 221.1 200 236.9 184.1 236.9 161.6 236.9 139.1 221.1 123.3M231.9 161.6Q231.9 182 217.5 196.5 203.1 210.9 182.7 210.9 162.3 210.9 147.9 196.5 133.4 182 133.4 161.6 133.4 141.2 147.9 126.8 162.3 112.4 182.7 112.4 203.1 112.4 217.5 126.8 231.9 141.2 231.9 161.6M572.9 449.2Q572.1 448.5 571.1 448.5L504.5 448.5Q503.5 448.5 502.8 449.2 502 449.9 502 451 502 452 502.8 452.8 503.5 453.5 504.5 453.5L571.1 453.5Q572.1 453.5 572.9 452.8 573.6 452 573.6 451 573.6 449.9 572.9 449.2M530.9 140.8Q528.7 143 528.7 146.2 528.7 149.4 530.9 151.6 530.9 151.7 530.9 151.7 533.2 153.9 536.4 153.9 539.6 153.9 541.9 151.7 544.1 149.4 544.1 146.2 544.1 143 541.9 140.7L541.8 140.7Q539.6 138.5 536.4 138.5 533.2 138.5 531 140.7 530.9 140.7 530.9 140.8M534.5 144.3Q535.3 143.5 536.4 143.5 537.6 143.5 538.4 144.3L538.3 144.3Q539.1 145.1 539.1 146.2 539.1 147.3 538.3 148.2 537.5 148.9 536.4 148.9 535.3 148.9 534.5 148.2 533.7 147.4 533.7 146.2 533.7 145.1 534.5 144.3M785.8 158.7Q785.1 158 784 158L294.9 158Q293.9 158 293.2 158.7 292.4 159.4 292.4 160.5L292.4 438.4Q292.4 439.4 293.2 440.2 293.9 440.9 294.9 440.9L784 440.9Q785.1 440.9 785.8 440.2 786.5 439.4 786.5 438.4L786.5 160.5Q786.5 159.4 785.8 158.7M781.5 163L781.5 187.6 297.4 187.6 297.4 163 781.5 163M781.5 192.6L781.5 435.9 340.7 435.9 340.7 192.6 781.5 192.6M335.7 435.9L297.4 435.9 297.4 192.6 335.7 192.6 335.7 435.9M326.1 284.6Q326.1 283.6 325.4 282.9 324.7 282.1 323.6 282.1L310.9 282.1Q309.8 282.1 309.1 282.9 308.4 283.6 308.4 284.6 308.4 285.7 309.1 286.4 309.8 287.1 310.9 287.1L323.6 287.1Q324.7 287.1 325.4 286.4 326.1 285.7 326.1 284.6M326.1 259.9Q326.1 258.8 325.4 258.1 324.7 257.4 323.6 257.4L310.9 257.4Q309.8 257.4 309.1 258.1 308.4 258.8 308.4 259.9 308.4 260.9 309.1 261.7 309.8 262.4 310.9 262.4L323.6 262.4Q324.7 262.4 325.4 261.7 326.1 260.9 326.1 259.9M326.1 235.1Q326.1 234.1 325.4 233.4 324.7 232.6 323.6 232.6L310.9 232.6Q309.8 232.6 309.1 233.4 308.4 234.1 308.4 235.1 308.4 236.2 309.1 236.9 309.8 237.6 310.9 237.6L323.6 237.6Q324.7 237.6 325.4 236.9 326.1 236.2 326.1 235.1M326.1 210.4Q326.1 209.3 325.4 208.6 324.7 207.9 323.6 207.9L310.9 207.9Q309.8 207.9 309.1 208.6 308.4 209.3 308.4 210.4 308.4 211.4 309.1 212.2 309.8 212.9 310.9 212.9L323.6 212.9Q324.7 212.9 325.4 212.2 326.1 211.4 326.1 210.4M586.3 386.2Q586.2 386.2 586.2 386.2L586.2 386.2 586.3 386.2M312.8 172.4Q311.5 171.1 309.8 171.1 308 171.1 306.7 172.4 305.5 173.6 305.5 175.4 305.5 177.2 306.7 178.4 308 179.7 309.8 179.7 311.5 179.7 312.8 178.4 314 177.2 314 175.4 314 173.6 312.8 172.4M325.9 178.4Q327.2 177.2 327.2 175.4 327.2 173.6 325.9 172.4 324.7 171.1 322.9 171.1 321.1 171.1 319.9 172.4 318.6 173.6 318.6 175.4 318.6 177.2 319.9 178.4 321.1 179.7 322.9 179.7 324.7 179.7 325.9 178.4M336 171.1Q334.2 171.1 333 172.4 331.8 173.6 331.8 175.4 331.8 177.2 333 178.4 334.2 179.7 336 179.7 337.8 179.7 339 178.4 340.3 177.2 340.3 175.4 340.3 173.6 339 172.4 337.8 171.1 336 171.1Z" fill="#351936"/><path d="M195.7 307.6L196.1 312.6 249.8 312.6 249.8 307.6 195.7 307.6M114.8 307.6L114.8 312.6 172.6 312.6 173 307.6 114.8 307.6M233.7 66.9Q232.5 64.6 231.3 62.4 185 75.8 133.3 62.5 132 64.7 130.8 67 185.3 81.3 233.7 66.9M458.1 287.6Q454.5 291.2 451.6 295.1 451.1 295.8 451.1 296.7 451.2 297.6 451.8 298.2L462 309.8Q458.9 315 457.3 320.9L441.8 321.8Q440.9 321.9 440.3 322.5 439.6 323.1 439.5 324 438.8 328.9 438.8 334.2 438.8 339.7 439.6 344.8 439.7 345.7 440.4 346.3 441.1 346.9 441.9 346.9L457.3 347.8Q458.9 353.4 461.8 358.4L451.6 370Q451 370.6 450.9 371.5 450.9 372.4 451.4 373.1 454.4 377.2 458.1 380.9 462 384.7 466.2 387.9 466.9 388.4 467.8 388.4 468.7 388.3 469.4 387.8L481 377.5Q485.8 380.1 491.2 381.6L492.2 397.1Q492.2 398 492.8 398.6 493.4 399.3 494.3 399.4 499.3 400.2 504.7 400.2 510.1 400.2 515.1 399.4 515.9 399.3 516.5 398.6 517.1 398 517.2 397.1L518.1 381.7Q523.6 380.2 528.5 377.4L540.1 387.8Q540.8 388.3 541.7 388.4 542.6 388.4 543.3 387.9 547.5 384.7 551.4 380.9L551.3 380.9Q555 377.2 558 373.2 558.6 372.5 558.5 371.6 558.5 370.7 557.9 370L547.7 358.5Q550.6 353.3 552.2 347.5L567.6 346.6Q568.5 346.6 569.2 346 569.8 345.4 570 344.5 570.7 339.5 570.7 334.2 570.7 328.6 569.9 323.4 569.7 322.6 569.1 322 568.4 321.4 567.5 321.3L552 320.4Q550.6 315.2 548 310.5L558.2 298.9Q558.8 298.3 558.8 297.4 558.9 296.5 558.4 295.8 555.3 291.6 551.4 287.6 547.7 283.9 543.6 280.9 542.9 280.3 542 280.4 541.1 280.4 540.5 281L528.9 291.2Q524.1 288.5 518.7 286.9L517.8 271.4Q517.7 270.5 517.1 269.9 516.5 269.2 515.7 269.1 510.4 268.3 504.7 268.3 499.5 268.3 494.5 269.1 493.6 269.2 493 269.9 492.4 270.5 492.4 271.4L491.5 286.7Q486.1 288.2 481.3 290.8L469.7 280.6Q469 280 468.2 279.9 467.3 279.9 466.6 280.4 462.2 283.6 458.1 287.6M456.9 296.5Q459.1 293.8 461.6 291.2L461.7 291.1Q464.7 288.2 467.9 285.7L479.3 295.8Q479.9 296.3 480.7 296.4 481.5 296.4 482.2 296 487.9 292.6 494.4 291.2 495.2 291 495.7 290.4 496.3 289.7 496.3 288.9L497.3 273.8Q500.9 273.3 504.7 273.3 508.9 273.3 512.9 273.8L513.8 289Q513.9 289.8 514.4 290.5 514.9 291.1 515.7 291.3 522.2 292.9 527.9 296.5 528.6 296.9 529.4 296.8 530.2 296.8 530.9 296.2L542.3 286.1Q545.1 288.4 547.8 291.1L547.8 291.2Q550.7 294.1 553.1 297.2L543.1 308.5Q542.5 309.1 542.4 310 542.4 310.8 542.8 311.5 546.1 317 547.7 323.4 547.8 324.2 548.5 324.7 549.1 325.2 549.9 325.3L565.2 326.2Q565.7 330.1 565.7 334.2 565.7 338.1 565.3 341.8L550 342.6Q549.2 342.7 548.6 343.2 547.9 343.8 547.7 344.6 546.2 351.5 542.5 357.5 542 358.2 542.1 359 542.1 359.8 542.7 360.4L552.8 371.8Q550.5 374.7 547.8 377.3 544.9 380.2 541.9 382.6L530.5 372.5Q529.9 371.9 529.1 371.8 528.2 371.8 527.5 372.2 521.8 375.7 515.2 377.3 514.4 377.4 513.8 378.1 513.3 378.7 513.2 379.5L512.3 394.7Q508.6 395.2 504.7 395.2 500.8 395.2 497.1 394.7L496.1 379.5Q496 378.6 495.5 378 494.9 377.4 494.2 377.2 487.6 375.7 482 372.3 481.3 371.8 480.5 371.9 479.6 372 479 372.5L467.6 382.6Q464.5 380.2 461.7 377.3L461.6 377.3Q458.9 374.6 456.7 371.8L466.8 360.4Q467.4 359.8 467.4 358.9 467.5 358.1 467 357.4 463.3 351.6 461.7 344.9 461.5 344 460.9 343.5 460.2 343 459.4 342.9L444.3 342.1Q443.8 338.2 443.8 334.2 443.8 330.3 444.2 326.7L459.4 325.8Q460.3 325.7 460.9 325.2 461.5 324.6 461.7 323.8 463.3 316.8 467.2 310.8 467.6 310.1 467.5 309.3 467.5 308.4 466.9 307.8L456.9 296.5M484.2 313.6Q475.6 322.1 475.6 334.2 475.6 346.3 484.2 354.8L484.2 354.9Q492.7 363.4 504.7 363.4 516.8 363.4 525.4 354.9L525.4 354.8Q533.9 346.3 533.9 334.2 533.9 322.1 525.4 313.6L525.4 313.6Q516.8 305.1 504.7 305.1 492.6 305.1 484.2 313.6M487.7 317.2L487.7 317.1Q494.7 310.1 504.7 310.1 514.8 310.1 521.9 317.2 528.9 324.2 528.9 334.2 528.9 344.2 521.9 351.3 514.7 358.4 504.7 358.4 494.7 358.4 487.7 351.3L487.7 351.3Q480.6 344.2 480.6 334.2 480.6 324.2 487.7 317.2M489.1 334.2Q489.1 340.7 493.6 345.3L493.6 345.3Q498.3 349.9 504.7 349.9 511.2 349.9 515.8 345.3L515.8 345.3Q520.4 340.7 520.4 334.2 520.4 327.8 515.8 323.2L515.8 323.2Q511.2 318.5 504.7 318.5 498.2 318.5 493.6 323.2 489.1 327.7 489.1 334.2M497.2 326.7L497.2 326.7Q500.3 323.5 504.7 323.5 509.1 323.5 512.3 326.7L512.3 326.7Q515.4 329.8 515.4 334.2 515.4 338.6 512.3 341.8 509.1 344.9 504.7 344.9 500.3 344.9 497.2 341.8L497.1 341.8Q494.1 338.6 494.1 334.2 494.1 329.8 497.2 326.7Z" fill="#7E64E0"/><path d="M211.3 190.3Q223.1 178.4 223.1 161.6 223.1 144.9 211.3 133.1 199.5 121.2 182.7 121.2 165.9 121.2 154.1 133.1 142.3 144.9 142.3 161.6 142.3 178.4 154.1 190.3 165.9 202.1 182.7 202.1 199.5 202.1 211.3 190.3M218.1 161.6Q218.1 176.3 207.8 186.7 197.4 197.1 182.7 197.1 168 197.1 157.7 186.7 147.3 176.3 147.3 161.6 147.3 147 157.7 136.6 168 126.2 182.7 126.2 197.4 126.2 207.8 136.6 218.1 147 218.1 161.6Z" fill="#00B7FF"/><path d="M560.9 362.1Q561.7 365.5 564.8 367.5L571.1 371.3Q570.7 372.9 570.6 374.5L562.7 376Q559.1 376.7 557.2 379.6L557.2 379.5Q555.1 382.5 555.8 386.1L555.8 386Q556.4 389.5 559.4 391.5 559.4 391.6 559.5 391.6 562.4 393.6 565.9 392.9L565.8 392.9 574.7 391.3Q575.3 392.2 576.1 393.2L571.7 400.2Q569.8 403.2 570.6 406.7L570.6 406.8Q571.4 410.2 574.4 412 574.4 412.1 574.5 412.1 577.5 414 581 413.2 584.4 412.3 586.3 409.3L590.8 402.2Q592 402.4 593.2 402.5L595 410 595 410Q595.9 413.5 599 415.3L598.9 415.2Q601.9 417.2 605.5 416.4 605.5 416.3 605.5 416.4 609 415.4 610.8 412.4 612.7 409.2 611.8 405.8L611.8 405.9 610 398.4Q611.3 397.4 612.5 396.4L618.1 400.3Q621.1 402.3 624.6 401.6L624.5 401.7Q628.1 401.1 630.1 398.2 632.2 395.2 631.5 391.7 630.9 388.2 628 386.1L620.9 381.2Q621 380.3 621.1 379.5L628.9 377.5Q632.3 376.7 634.1 373.5 634.1 373.5 634.2 373.5 635.9 370.5 635.1 367L635.1 367Q634.2 363.5 631.1 361.7 628 359.9 624.6 360.8L616.7 362.8Q616.3 362.2 615.8 361.6L619.9 354.8Q621.7 351.7 620.8 348.2L620.8 348.3Q620 344.9 616.9 343L616.9 343Q613.7 341.1 610.4 342 607 342.8 605.1 345.8 605.1 345.9 605 345.9L601.2 352.4Q600 352.1 598.7 352L597.1 344.3Q597.1 344.2 597.1 344.2 596.2 340.8 593.3 338.9 590.3 336.9 586.9 337.6 586.8 337.6 586.8 337.6 583.3 338.4 581.4 341.4L581.4 341.4Q579.5 344.3 580.2 347.8L580.2 347.8 581.9 356Q581.2 356.4 580.6 356.9L573.8 352.8 573.8 352.7Q570.7 350.9 567.3 351.7 563.8 352.5 561.9 355.7L561.9 355.6Q560.1 358.7 561 362.1L560.9 362.1M565.8 360.9Q565.5 359.5 566.2 358.2 567 356.9 568.5 356.6 569.9 356.3 571.3 357.1L571.2 357 579.5 362.1Q580.2 362.5 581 362.4 581.8 362.4 582.5 361.8 584.1 360.4 586 359.3 586.7 358.9 587 358.1 587.3 357.4 587.2 356.6L585.1 346.8Q584.8 345.3 585.6 344.1L585.6 344.1Q586.4 342.8 588 342.5L587.9 342.5Q589.3 342.2 590.6 343 591.8 343.8 592.2 345.3L594.2 354.9Q594.4 355.8 595.1 356.3 595.7 356.9 596.6 356.9 599.3 356.9 601.7 357.6 602.5 357.9 603.3 357.6 604.1 357.2 604.5 356.5L609.3 348.5 609.3 348.6Q610.1 347.2 611.6 346.9 613 346.5 614.4 347.3L614.3 347.3Q615.6 348 616 349.4 616 349.5 616 349.5 616.3 351 615.6 352.3L615.6 352.2 610.6 360.5Q610.1 361.2 610.2 362.1 610.3 362.9 610.9 363.5 612.4 365.2 613.5 367 613.9 367.7 614.7 368 615.5 368.3 616.3 368.1L625.9 365.6Q627.3 365.3 628.6 366 629.9 366.8 630.3 368.3L630.3 368.2Q630.6 369.7 629.8 370.9L629.8 371Q629 372.3 627.6 372.7L618.1 375.1Q617.3 375.3 616.8 376 616.2 376.7 616.2 377.5 616.2 377.7 616.2 377.8 616.2 377.9 616.2 378.1 616.1 380 615.7 381.8 615.6 382.5 615.9 383.2 616.1 383.9 616.8 384.3L625.2 390.2 625.1 390.2Q626.4 391.1 626.6 392.6 626.9 394.1 626 395.3L626 395.3Q625.2 396.5 623.7 396.7 623.7 396.7 623.6 396.7 622.2 397 621 396.2L613.7 391Q612.8 390.5 611.9 390.6 610.9 390.7 610.3 391.5 610 391.9 609.7 392.2L609.7 392.2Q609.6 392.2 609.6 392.3 607.8 393.9 605.8 395.1 605.1 395.5 604.8 396.3 604.5 397 604.7 397.8L606.9 407.1Q606.9 407.1 606.9 407.1 607.3 408.5 606.5 409.8L606.5 409.8Q605.7 411.1 604.2 411.5L604.3 411.5Q602.9 411.8 601.7 411.1 601.6 411 601.6 411 600.2 410.2 599.9 408.7L599.9 408.8 597.7 399.5Q597.5 398.7 596.8 398.1 596.1 397.6 595.2 397.6 595.1 397.6 594.9 397.6L594.9 397.6Q592.5 397.5 590.2 396.9 589.4 396.7 588.7 397 587.9 397.3 587.5 398L582.1 406.7Q581.2 407.9 579.8 408.3 578.4 408.6 577.2 407.8 577.1 407.8 577.1 407.8 575.8 407 575.5 405.7 575.1 404.1 576 402.9L576 402.8 581.3 394.2Q581.6 393.7 581.6 393 581.6 392.4 581.4 391.8 581.3 391.7 581.3 391.6 581.1 391.3 580.9 391 579.2 389.2 578.1 387.3 577.6 386.6 576.9 386.3 576.2 385.9 575.4 386.1L564.9 388 564.9 388Q563.4 388.3 562.3 387.4 562.2 387.4 562.2 387.4 560.9 386.6 560.7 385.1L560.7 385.1Q560.4 383.6 561.3 382.4 561.3 382.4 561.3 382.4 562.1 381.2 563.6 380.9L573.4 379.1Q574.3 378.9 574.9 378.2 575.4 377.5 575.4 376.6 575.4 376.6 575.4 376.5 575.6 373.5 576.4 371 576.7 370.1 576.4 369.3 576.1 368.5 575.3 368.1L567.4 363.2 567.4 363.2Q566.1 362.4 565.8 361L565.8 360.9M596.4 364.1L596.3 364.1Q590.9 363.9 586.9 367.6 582.9 371.4 582.7 376.7L582.7 376.8Q582.5 382.1 586 385.9 586.1 386 586.2 386.2 586.2 386.2 586.3 386.2 586.3 386.3 586.4 386.3 589.9 390.2 595.2 390.4L595.3 390.4Q600.7 390.6 604.8 386.8L604.7 386.9Q608.7 383.2 608.9 377.7 609.1 372.4 605.4 368.3L605.4 368.3Q601.7 364.3 596.4 364.1M596.1 369.1L596.2 369.1Q599.4 369.2 601.7 371.7L601.8 371.7Q604 374.2 603.9 377.6 603.8 380.9 601.4 383.1 601.3 383.1 601.3 383.2 598.8 385.5 595.4 385.4 592.2 385.3 590 382.9L590 382.8Q589.9 382.8 589.9 382.7 589.7 382.5 589.5 382.4 587.5 380.1 587.7 376.9 587.8 373.6 590.3 371.3 592.8 369 596.1 369.1Z" fill="#3DE2DA"/><path d="M568.5 221.3Q570.2 218.1 569.2 214.7 568.2 211.4 565.2 209.6L565.1 209.6Q561.9 207.8 558.4 208.9L558.5 208.9Q555.1 209.8 553.4 213L553.3 213 549.7 219.6Q548.5 219.4 547.2 219.3L545.3 211.6 545.3 211.6Q544.4 208.2 541.4 206.4L541.3 206.3Q538.3 204.4 534.8 205.4L534.7 205.4Q531.4 206.3 529.5 209.3L529.6 209.3Q527.6 212.4 528.6 215.8L528.6 215.8 530.6 223.9Q530 224.4 529.4 224.9L522.4 221 522.3 221Q519.3 219.3 515.9 220.3 515.9 220.3 515.8 220.3 512.4 221.1 510.6 224.4L510.7 224.4Q508.9 227.5 509.9 230.9 510.9 234.3 514 236.1L520.4 239.6Q520.1 241.2 520 242.9L512.3 244.6Q512.2 244.6 512.2 244.6 508.8 245.4 506.8 248.4 504.8 251.5 505.7 255L505.7 254.9Q506.4 258.4 509.5 260.3L509.5 260.3Q512.5 262.3 516 261.4L516 261.4 524.7 259.5Q525.4 260.4 526.2 261.3L522.1 268.6Q520.3 271.7 521.3 275.1 522.2 278.5 525.3 280.2 528.4 282.1 531.9 281.1 535.3 280.1 537.1 277L541.2 269.7Q542.5 269.9 543.7 270L545.8 277.3Q545.8 277.4 545.8 277.4 546.8 280.8 550 282.5L550 282.5Q553.1 284.3 556.5 283.3 559.9 282.3 561.6 279.2 563.4 276.1 562.4 272.6L560.3 265.1Q561.5 264.2 562.8 263.1L568.5 266.8Q571.5 268.7 574.9 268L575 268Q578.5 267.2 580.4 264.1L580.4 264.2Q582.3 261.3 581.6 257.7 580.9 254.2 577.9 252.2L577.8 252.2 570.6 247.6Q570.7 246.7 570.7 245.9L578.4 243.6 578.3 243.6Q581.8 242.6 583.5 239.4 585.2 236.3 584.2 232.9 584.2 232.8 584.2 232.8 583.1 229.4 580 227.7L580 227.7Q576.8 226 573.4 227L565.6 229.4Q565.2 228.8 564.7 228.2L568.5 221.3M579.4 234.2L579.4 234.3Q579.8 235.7 579.1 237L579.1 237.1Q578.4 238.4 577 238.8L576.9 238.8 567.5 241.6Q566.7 241.8 566.2 242.5 565.7 243.1 565.7 244 565.7 244.3 565.7 244.6 565.7 246.6 565.4 248.4 565.3 249.1 565.6 249.8 565.9 250.5 566.5 250.9L575.1 256.4Q576.4 257.2 576.7 258.7L576.7 258.7Q577 260.2 576.2 261.4 575.4 262.7 573.9 263.1 572.5 263.4 571.2 262.6L563.8 257.8Q563 257.3 562.1 257.4 561.2 257.5 560.6 258.2 560.2 258.6 559.9 258.9 559.8 258.9 559.8 259 558 260.8 556.1 262.1 555.4 262.5 555.1 263.3 554.8 264 555 264.8L557.6 274Q558 275.4 557.3 276.7 557.3 276.7 557.2 276.8 556.5 278.1 555.1 278.5L555.1 278.5Q553.7 278.9 552.4 278.2L552.4 278.1Q551 277.4 550.6 276L550.6 276 548 266.9Q547.8 266 547.1 265.5 546.5 265 545.6 265 545.4 265 545.3 265 542.8 265 540.5 264.5 539.7 264.3 538.9 264.7 538.2 265 537.8 265.7L532.8 274.6Q532 275.9 530.6 276.3 529.1 276.7 527.9 275.9 527.8 275.9 527.8 275.9 526.5 275.2 526.2 273.8 526.1 273.7 526.1 273.7 525.7 272.3 526.5 271L531.5 262.2Q531.9 261.5 531.8 260.7 531.7 259.9 531.2 259.3 531 259.1 530.9 259 529.2 257.3 527.9 255.3 527.5 254.7 526.8 254.4 526 254.1 525.3 254.2L514.9 256.5 514.8 256.6Q513.4 256.9 512.2 256.1L512.2 256.1Q510.9 255.3 510.6 253.8L510.6 253.8Q510.2 252.4 511 251.2 511.9 249.9 513.3 249.5L523 247.3Q523.8 247.1 524.4 246.5 524.9 245.8 524.9 244.9 524.9 244.8 524.9 244.6 524.9 241.7 525.7 239 525.9 238.2 525.5 237.4 525.2 236.6 524.5 236.2L516.4 231.7Q515.1 231 514.7 229.5L514.7 229.5Q514.3 228.1 515 226.8L515 226.8Q515.7 225.5 517.1 225.1 517.2 225.1 517.2 225.1 518.6 224.7 519.9 225.4L528.5 230.1Q529.2 230.5 530 230.4 530.8 230.3 531.4 229.8 533 228.3 534.8 227.1 535.5 226.6 535.8 225.9 536 225.1 535.9 224.4L533.4 214.6 533.4 214.5Q533 213.1 533.8 211.9 534.6 210.6 536 210.2 537.5 209.8 538.7 210.6L538.8 210.6Q540.1 211.4 540.5 212.9L540.5 212.8 542.8 222.3Q543 223.2 543.7 223.7 544.4 224.2 545.2 224.2L545.3 224.2Q548 224.2 550.5 224.8 551.3 225 552.1 224.7 552.8 224.3 553.2 223.6L557.7 215.4 557.7 215.4Q558.4 214.1 559.8 213.7 559.9 213.7 560 213.7 561.3 213.2 562.6 213.9L562.7 213.9Q563.9 214.7 564.4 216.1 564.8 217.6 564.1 218.9L564.1 218.9 559.4 227.4Q559 228.1 559.2 228.9 559.3 229.8 559.9 230.4 561.4 231.9 562.5 233.6 563 234.3 563.8 234.6 564.5 234.9 565.3 234.7L574.8 231.8Q576.3 231.4 577.6 232.1L577.7 232.2Q578.9 232.8 579.4 234.2M536.1 235.4Q532.2 239.2 532.2 244.6 532.2 250 536 253.9L536.1 254Q539.9 257.8 545.3 257.8 550.7 257.8 554.6 253.9L554.7 253.9Q558.5 250.1 558.5 244.6 558.5 239.3 554.7 235.4L554.6 235.4Q550.7 231.5 545.3 231.5 539.9 231.5 536.1 235.4M539.6 238.9Q542 236.5 545.3 236.5 548.6 236.5 551.1 238.9L551.1 238.9Q553.5 241.3 553.5 244.6 553.5 248 551.1 250.4 548.7 252.8 545.3 252.8 542 252.8 539.7 250.5L539.5 250.3Q537.2 248 537.2 244.6 537.2 241.3 539.6 238.9L539.6 238.9Z" fill="#FF9D02"/></svg>
